<svg width="400" height="400" viewBox="0 0 400 400" fill="none" xmlns="http://www.w3.org/2000/svg">
<path d="M49 353H102" stroke="#976000" stroke-width="15" stroke-linecap="round"/>
<path d="M299 102L299 55" stroke="#976000" stroke-width="15" stroke-linecap="round"/>
<path d="M299 273L299 176" stroke="#976000" stroke-width="15" stroke-linecap="round"/>
<path d="M250 245.795L298 197.795" stroke="#976000" stroke-width="15" stroke-linecap="round"/>
<path d="M250 321L298 273" stroke="#976000" stroke-width="15" stroke-linecap="round"/>
<path d="M349 246L301 198" stroke="#976000" stroke-width="15" stroke-linecap="round"/>
<path d="M349 321.205L301 273.205" stroke="#976000" stroke-width="15" stroke-linecap="round"/>
<path d="M75 113.441L132 56.4415" stroke="#976000" stroke-width="15" stroke-linecap="round"/>
<path d="M51 55H324" stroke="#976000" stroke-width="15" stroke-linecap="round"/>
<path d="M75 353L75 55" stroke="#976000" stroke-width="15" stroke-linecap="round"/>
<path d="M332.696 133.5C332.896 134.971 333 136.474 333 138C333 156.225 318.225 171 300 171C281.775 171 267 156.225 267 138C267 119.775 281.775 105 300 105C304.146 105 308.113 105.764 311.768 107.16" stroke="#976000" stroke-width="15" stroke-linecap="round"/>
</svg>
